# xmcd
#
# Track frame offsets: 
#        150
#        12446
#        25591
#        37198
#        49473
#        60331
#        70286
#        81826
#        94048
#        106299
#
# Disc length: 1573 seconds
#
# Revision: 0
# Processed by: cddbd v1.5.2PL0 Copyright (c) Steve Scherf et al.
# Submitted via: ExactAudioCopy v0.95b3
#
DISCID=7e06230a
DTITLE=Hank Williams - Original American Classics: Honky Tonk Legend
DYEAR=2006
DGENRE=Country/ Western
TTITLE0=Your Cheatin' Heart
TTITLE1=Jambalaya (On The Bayou)
TTITLE2=Kaw-Liga
TTITLE3=Half As Much
TTITLE4=I Can't Tell If I'm Still In Love With You
TTITLE5=Honky Tonk Blues
TTITLE6=Baby, We're Really In Love
TTITLE7=There'll Be No Teardrops Tonight
TTITLE8=Lost Highway
TTITLE9=Weary Blues From Waitin'
EXTD=
EXTT0=
EXTT1=
EXTT2=
EXTT3=
EXTT4=
EXTT5=
EXTT6=
EXTT7=
EXTT8=
EXTT9=
PLAYORDER=
